<svg xmlns="http://www.w3.org/2000/svg" xmlns:xlink="http://www.w3.org/1999/xlink" viewBox="20 65 600 515"><path fill="#577544" d="M557 134C550 131 541 124 538 119C534 115 520 100 510 96C499 92 484 91 478 91C472 91 457 91 451 89C445 87 437 68 429 71C429 71 416 72 407 90C398 109 401 112 365 119C330 127 294 124 279 132C264 140 241 167 200 168C160 170 163 170 109 194C76 208 66 229 60 240 L 50 259C43 272 31 296 29 319C26 347 36 391 38 405C39 420 45 438 44 449C44 459 39 486 44 492C50 497 82 513 104 502C126 491 115 484 111 480C107 477 100 468 97 464C94 460 95 456 97 453C98 450 104 431 105 428C107 424 129 392 131 386C133 380 150 382 154 385C158 388 165 410 166 419C166 429 167 455 175 463C183 471 216 472 222 472C232 472 242 466 236 459C229 453 214 439 212 435C209 432 214 417 219 412C223 406 226 405 229 411C232 417 245 455 248 478C251 500 252 532 254 538C256 543 284 571 299 571C314 571 362 562 339 535C316 508 314 517 313 493C312 470 316 423 317 410C319 398 319 396 322 402C325 409 331 461 335 477C340 493 342 513 360 519C377 526 413 537 424 529C431 524 432 512 421 503C409 494 390 483 389 471C389 458 399 409 405 395C410 382 414 366 415 345C417 323 419 289 423 287C425 285 451 273 475 259 L 475 259C503 242 531 227 537 223C543 218 563 222 578 210C591 188 601 184 603 174C605 164 615 162 615 151C615 139 613 137 603 136C593 135 565 136 557 134Z" /></svg>
